Coordinates
version=1
nRows=14
nColumns=36
inDegrees=yes

Units are S.I. units (second, meters, Newtons, ...)
If the header above contains a line with 'inDegrees', this indicates whether rotational values are in degrees (yes) or radians (no).

endheader
time	pelvis_tilt	pelvis_list	pelvis_rotation	pelvis_tx	pelvis_ty	pelvis_tz	hip_flexion_r	hip_adduction_r	hip_rotation_r	knee_angle_r	knee_angle_r_beta	ankle_angle_r	subtalar_angle_r	mtp_angle_r	hip_flexion_l	hip_adduction_l	hip_rotation_l	knee_angle_l	knee_angle_l_beta	ankle_angle_l	subtalar_angle_l	mtp_angle_l	lumbar_extension	lumbar_bending	lumbar_rotation	arm_flex_r	arm_add_r	arm_rot_r	elbow_flex_r	pro_sup_r	arm_flex_l	arm_add_l	arm_rot_l	elbow_flex_l	pro_sup_l
      1.69491520	    -11.58484044	      1.32593113	      3.70593584	      0.32996708	      1.34992445	     -0.03828960	     10.82088350	     -3.70720454	    -12.90342586	      1.12098883	      0.01956495	    -41.09170816	      7.30282213	     -7.49999891	     14.13900226	     -5.75540212	     -6.37250099	      3.97808935	      0.06943076	    -40.61537680	      4.39692840	     -7.49999891	     -4.02425656	     -4.96775030	     -2.72706459	    131.56323577	    -25.95095506	     56.58277243	    103.24085488	     90.46227172	    125.22255034	    -14.77745682	     50.80455040	    100.86268809	     87.43196452
      1.71186440	    -11.59213582	      0.82739534	      4.20196908	      0.33142753	      1.37256133	     -0.03142263	     11.00888438	     -2.89848090	    -11.25063599	      1.28113273	      0.02235998	    -40.75685166	      7.79936711	     -7.49999902	     14.65758945	     -6.63092728	     -5.51620291	      4.66349912	      0.08139341	    -39.97910658	      4.78144829	     -7.49999902	     -5.07528907	     -3.83851032	     -2.60510855	    137.86871295	    -24.75026268	     59.37108357	    101.12245724	     88.62073326	    128.65607357	    -17.22675540	     49.11674597	    102.61584171	     85.19719553
      1.72881360	    -11.75292445	      0.71238960	      4.14159273	      0.32973027	      1.40339006	     -0.02854212	     11.64682072	     -2.51571658	    -10.58142526	      1.28921433	      0.02250103	    -39.61152700	      7.34457512	     -7.49999924	     15.43939361	     -7.32087805	     -5.22133667	      5.41977530	      0.09459292	    -38.28927919	      5.56118537	     -7.49999924	     -5.86280883	     -3.52912426	     -2.63389616	    141.63920572	    -23.35611720	     58.44649300	     99.08179580	     92.38948452	    131.40402178	    -17.50777530	     46.04100701	    101.51659768	     88.27982677
      1.74576270	    -11.94774000	      0.62715478	      4.41887070	      0.33469899	      1.42239079	     -0.02674439	     12.06186320	     -2.48402914	    -10.75113002	      1.06922774	      0.01866154	    -37.31824917	      6.67876327	     -7.49999939	     15.97030906	     -7.84101552	     -6.63525734	      5.50435954	      0.09606920	    -37.29349604	      5.15625454	     -7.49999939	     -6.18671014	     -3.56296600	     -2.24654584	    145.47305341	    -22.54791969	     58.97971586	     96.28638921	     92.99567310	    133.94829014	    -18.37143392	     45.57159842	    101.14300284	     87.91846244
      1.76271190	    -12.04543724	      0.46741283	      4.72049588	      0.33245767	      1.44106300	     -0.02296116	     12.53787231	     -2.24572896	    -11.46393602	      0.93762083	      0.01636457	    -35.58970321	      5.04144884	     -7.49999941	     16.49337205	     -8.45911104	     -6.90816372	      5.52223606	      0.09638120	    -34.19843058	      5.46579786	     -7.49999941	     -6.78950166	     -3.74778092	     -1.91452105	    147.48093600	    -22.68848991	     58.00632164	     95.78494164	     91.32802529	    136.71616721	    -18.74488685	     46.30216155	    100.68373259	     86.41471205
      1.77966100	    -12.03799698	      0.27781249	      5.34181152	      0.33669813	      1.46110921	     -0.03005635	     12.47908474	     -2.27947623	    -12.37776386	      0.98541788	      0.01719879	    -33.69178298	      3.72663771	     -7.49999953	     16.91392387	     -8.79881927	     -6.98819367	      5.63285216	      0.09831182	    -30.79216006	      5.28590403	     -7.49999953	     -6.89106976	     -3.87114755	     -1.15085881	    149.84745457	    -24.25790743	     59.09165237	     96.02836117	     93.86135483	    137.39172902	    -18.38092589	     47.29196946	    100.25690453	     89.52144032
      1.79661020	    -12.00933058	     -0.03358659	      5.51503403	      0.33751347	      1.47346046	     -0.03128803	     12.43585626	     -2.31591674	    -12.45451631	      1.27237896	      0.02220720	    -31.72357641	      3.21847008	     -7.49999957	     17.11440527	     -9.15504148	     -6.51014212	      5.53374892	      0.09658214	    -26.75101545	      5.30675184	     -7.49999957	     -6.87577630	     -3.29505024	     -0.93521396	    150.05047843	    -25.08937734	     58.75285010	     97.40523169	     92.32122104	    138.55547237	    -19.38746734	     48.39991727	    100.72164967	     88.40692875
      1.81355930	    -11.95164161	     -0.35758383	      5.57358358	      0.34141065	      1.48705574	     -0.02902964	     12.12818860	     -2.07382313	    -12.09498541	      1.43617818	      0.02506604	    -30.63430573	      2.34118307	     -7.49999959	     17.03184023	     -9.77866766	     -5.86006379	      4.90343871	      0.08558115	    -23.59149034	      4.91824046	     -7.49999959	     -6.50801663	     -2.60039366	     -0.81016316	    149.40464531	    -25.11574564	     59.68894172	     97.79679643	     90.87488297	    138.42728260	    -20.97546138	     49.58092318	    101.64311166	     87.20798389
      1.83050850	    -11.91960869	     -0.50233922	      5.78500161	      0.34234476	      1.50069445	     -0.02954337	     11.88801021	     -2.01055514	    -11.70277109	      1.62129469	      0.02829693	    -30.23399561	      1.81142193	     -7.49999965	     17.26428871	     -9.86259973	     -4.75140002	      5.18113188	      0.09042781	    -20.59519775	      3.86930534	     -7.49999965	     -6.04669757	     -2.12127257	     -0.89308192	    147.60567893	    -26.08273293	     59.24643994	    100.28925763	     93.37192099	    137.27648315	    -22.38549439	     50.40531940	    103.43195658	     90.83384716
      1.84745760	    -11.70168033	     -0.45328353	      5.76860224	      0.33838329	      1.50753995	     -0.02481927	     11.74083596	     -2.03633996	    -10.42735896	      1.68482381	      0.02940572	    -29.75763906	      1.97221553	     -7.49999965	     17.46779969	     -9.64537898	     -3.41396768	      5.99725392	      0.10467183	    -17.82853454	      3.43323037	     -7.49999965	     -6.20963330	     -2.18154614	     -0.79540759	    146.87418278	    -26.25115246	     59.79844543	    100.85104162	     93.36738932	    136.53003842	    -23.59448038	     50.93124864	    104.12757396	     90.85630363
      1.86440680	    -11.76537093	     -0.45624683	      5.86338390	      0.33945803	      1.50889262	     -0.02482875	     11.97774660	     -2.11258626	     -9.17607205	      1.99726903	      0.03485892	    -29.84668592	      2.32206586	     -7.49999973	     17.96054771	     -9.34056893	     -1.80256358	      6.96446702	      0.12155288	    -16.09099757	      3.43088784	     -7.49999973	     -6.02970775	     -1.87615018	     -1.70358269	    145.19739262	    -25.49250786	     59.09692335	    100.98114028	     92.38040854	    137.64828238	    -26.99389979	     53.59184220	    106.25663352	     89.47286248
      1.88135590	    -11.59599122	     -0.42860877	      5.93947154	      0.33952706	      1.50951458	     -0.02469766	     11.98593010	     -2.30166926	     -8.03013478	      2.66268489	      0.04647262	    -29.17106189	      3.02317975	     -7.49999976	     18.40246445	     -9.05719165	     -0.76289896	      8.34663766	      0.14567631	    -14.61339396	      3.61458782	     -7.49999976	     -6.47286646	     -1.77308127	     -1.07797023	    146.74022668	    -25.60651449	     61.69310008	    100.69508445	     89.34065334	    139.11839008	    -29.16164681	     55.98736158	    107.12306943	     86.41953805
      1.89830510	    -11.19518657	     -0.46389783	      5.94371024	      0.34451563	      1.50868181	     -0.02961729	     11.83303030	     -2.56476829	     -7.33196443	      3.74456929	      0.06535506	    -28.72168652	      3.04810453	     -7.49999976	     18.43771583	     -8.72376526	      0.41021963	      9.94402030	      0.17355590	    -13.11552815	      3.81903174	     -7.49999976	     -6.54872009	     -1.33598496	     -0.35685436	    146.35642515	    -26.29245281	     62.55959938	    101.63182703	     89.44022585	    138.77379693	    -30.38530869	     57.11629905	    107.76452707	     86.49866647
      1.91525420	    -10.90124216	     -0.30399389	      6.05793997	      0.34867242	      1.50840248	     -0.03390351	     11.90885073	     -3.17414018	     -7.44481109	      5.09051309	      0.08884621	    -28.45871454	      3.38237580	     -7.49999979	     18.66974000	     -8.21045126	      0.77603002	     11.77664205	      0.20554118	    -11.94464088	      4.46427499	     -7.49999979	     -6.55065895	     -1.26285743	     -0.17860035	    146.05072618	    -27.57527675	     63.67842775	    103.46869863	     86.94610311	    138.78372250	    -31.93364330	     57.51295362	    109.63864796	     84.01544726
